<!-- Generated by IcoMoon.io -->
<svg version="1.1" xmlns="http://www.w3.org/2000/svg" width="964" height="1024" viewBox="0 0 964 1024">
<title></title>
<g id="icomoon-ignore">
</g>
<path fill="none" stroke-linejoin="miter" stroke-linecap="butt" stroke-miterlimit="4" stroke-width="45.1765" stroke="#000" d="M214.741 233.979h680.117c19.661 0 34.051 18.531 29.181 37.579l-57.251 223.896c-10.228 39.993-46.258 67.97-87.537 67.97h-507.429M0 45.164h140.112c29.612 0 54.832 21.524 59.487 50.768l90.938 571.362c4.655 29.244 29.874 50.766 59.485 50.766h499.387"></path>
<path fill="none" stroke-linejoin="miter" stroke-linecap="butt" stroke-miterlimit="4" stroke-width="45.1765" stroke="#000" d="M474.922 911.529c0 39.219-30.434 69.578-66.241 69.578-35.804 0-66.241-30.359-66.241-69.578s30.437-69.578 66.241-69.578c35.807 0 66.241 30.359 66.241 69.578z"></path>
<path fill="none" stroke-linejoin="miter" stroke-linecap="butt" stroke-miterlimit="4" stroke-width="45.1765" stroke="#000" d="M865.762 911.529c0 39.219-30.437 69.578-66.241 69.578-35.807 0-66.241-30.359-66.241-69.578s30.434-69.578 66.241-69.578c35.804 0 66.241 30.359 66.241 69.578z"></path>
</svg>
