<svg width="22" height="28" viewBox="0 0 22 28" fill="none" xmlns="http://www.w3.org/2000/svg">
<path d="M10.5946 14.9052C10.6206 14.9052 10.6466 14.9052 10.6778 14.9052C10.6882 14.9052 10.6986 14.9052 10.709 14.9052C10.7246 14.9052 10.7455 14.9052 10.7611 14.9052C12.2854 14.8766 13.5184 14.2866 14.4288 13.1581C16.4318 10.672 16.0988 6.41005 16.0624 6.00333C15.9323 2.95011 14.6213 1.48938 13.5392 0.8077C12.7328 0.297875 11.7912 0.0229135 10.7402 0H10.7038C10.6986 0 10.6882 0 10.683 0H10.6518C10.0743 0 8.94018 0.103111 7.85286 0.784787C6.76034 1.46646 5.4285 2.9272 5.29844 6.00333C5.26202 6.41005 4.92906 10.672 6.93202 13.1581C7.83726 14.2866 9.07025 14.8766 10.5946 14.9052ZM6.6875 6.14654C6.6875 6.12936 6.6927 6.11217 6.6927 6.10072C6.86439 1.99347 9.51246 1.55239 10.6466 1.55239H10.6674C10.6778 1.55239 10.6934 1.55239 10.709 1.55239C12.1137 1.58676 14.5017 2.21688 14.6629 6.10072C14.6629 6.1179 14.6629 6.13509 14.6681 6.14654C14.6733 6.18664 15.0375 10.0819 13.3831 12.1327C12.7276 12.9461 11.8536 13.3471 10.7038 13.3586C10.6934 13.3586 10.6882 13.3586 10.6778 13.3586C10.6674 13.3586 10.6622 13.3586 10.6518 13.3586C9.50726 13.3471 8.62803 12.9461 7.97772 12.1327C6.32853 10.0934 6.6823 6.18091 6.6875 6.14654Z" fill="white"/>
<path d="M21.3682 21.974C21.3682 21.9683 21.3682 21.9626 21.3682 21.9568C21.3682 21.911 21.363 21.8652 21.363 21.8136C21.3318 20.6794 21.2641 18.0272 19.0062 17.1794C18.9906 17.1737 18.9698 17.1679 18.9542 17.1622C16.6079 16.5034 14.6569 15.0141 14.6361 14.9969C14.3188 14.7506 13.8817 14.8365 13.658 15.1859C13.4343 15.5353 13.5124 16.0165 13.8297 16.2628C13.9182 16.3316 15.9888 17.9183 18.5796 18.6516C19.7918 19.127 19.9271 20.5534 19.9635 21.8595C19.9635 21.911 19.9635 21.9568 19.9687 22.0027C19.9739 22.5182 19.9427 23.3145 19.8594 23.7727C19.0166 24.2997 15.713 26.1214 10.6874 26.1214C5.68257 26.1214 2.35816 24.294 1.51015 23.767C1.42691 23.3087 1.39049 22.5125 1.40089 21.9969C1.40089 21.9511 1.4061 21.9053 1.4061 21.8537C1.44251 20.5477 1.57778 19.1213 2.78997 18.6458C5.38082 17.9126 7.45143 16.3201 7.53987 16.2571C7.85722 16.0108 7.93526 15.5296 7.71155 15.1802C7.48784 14.8308 7.05083 14.7448 6.73348 14.9911C6.71267 15.0083 4.77213 16.4977 2.41539 17.1565C2.39458 17.1622 2.37897 17.1679 2.36336 17.1737C0.105466 18.0272 0.0378337 20.6794 0.00661858 21.8079C0.00661858 21.8595 0.00661846 21.9053 0.00141594 21.9511C0.00141594 21.9568 0.00141594 21.9626 0.00141594 21.9683C-0.00378658 22.2662 -0.00898899 23.7956 0.266745 24.5633C0.31877 24.7122 0.412415 24.8382 0.537276 24.9241C0.693352 25.0387 4.43396 27.6623 10.6926 27.6623C16.9512 27.6623 20.6918 25.033 20.8479 24.9241C20.9676 24.8382 21.0664 24.7122 21.1185 24.5633C21.3786 23.8014 21.3734 22.2719 21.3682 21.974Z" fill="white"/>
</svg>
